<svg width="382" height="855" viewBox="0 0 382 855" fill="none" xmlns="http://www.w3.org/2000/svg">
<circle cx="24" cy="59" r="8" fill="#D9D9D9" fill-opacity="0.06"/>
<ellipse cx="115.5" cy="117" rx="8.5" ry="8" fill="#D9D9D9" fill-opacity="0.06"/>
<ellipse cx="168" cy="7.5" rx="8" ry="7.5" fill="#D9D9D9" fill-opacity="0.06"/>
<ellipse cx="325" cy="59.5" rx="8" ry="7.5" fill="#D9D9D9" fill-opacity="0.06"/>
<ellipse cx="333" cy="156.5" rx="8" ry="7.5" fill="#D9D9D9" fill-opacity="0.06"/>
<ellipse cx="8" cy="186.5" rx="8" ry="7.5" fill="#D9D9D9" fill-opacity="0.06"/>
<ellipse cx="17" cy="287.5" rx="8" ry="7.5" fill="#D9D9D9" fill-opacity="0.06"/>
<circle cx="349" cy="272" r="8" fill="#D9D9D9" fill-opacity="0.06"/>
<circle cx="160" cy="404" r="8" fill="#D9D9D9" fill-opacity="0.06"/>
<ellipse cx="317" cy="395.5" rx="8" ry="7.5" fill="#D9D9D9" fill-opacity="0.06"/>
<ellipse cx="49" cy="644.5" rx="8" ry="7.5" fill="#D9D9D9" fill-opacity="0.06"/>
<circle cx="281" cy="736" r="8" fill="#D9D9D9" fill-opacity="0.06"/>
<ellipse cx="374" cy="679.5" rx="8" ry="7.5" fill="#D9D9D9" fill-opacity="0.06"/>
<circle cx="258" cy="831" r="8" fill="#D9D9D9" fill-opacity="0.06"/>
<ellipse cx="374" cy="847.5" rx="8" ry="7.5" fill="#D9D9D9" fill-opacity="0.06"/>
<circle cx="333" cy="769" r="8" fill="#D9D9D9" fill-opacity="0.06"/>
<ellipse cx="25" cy="847.5" rx="8" ry="7.5" fill="#D9D9D9" fill-opacity="0.06"/>
<ellipse cx="25" cy="744.5" rx="8" ry="7.5" fill="#D9D9D9" fill-opacity="0.06"/>
<circle cx="132" cy="838" r="8" fill="#D9D9D9" fill-opacity="0.06"/>
<circle cx="221" cy="664" r="8" fill="#D9D9D9" fill-opacity="0.06"/>
<circle cx="140" cy="753" r="8" fill="#D9D9D9" fill-opacity="0.06"/>
<ellipse cx="281" cy="532.5" rx="8" ry="7.5" fill="#D9D9D9" fill-opacity="0.06"/>
<circle cx="33" cy="404" r="8" fill="#D9D9D9" fill-opacity="0.06"/>
<circle cx="156" cy="493" r="8" fill="#D9D9D9" fill-opacity="0.06"/>
<circle cx="273" cy="477" r="8" fill="#D9D9D9" fill-opacity="0.06"/>
<circle cx="213" cy="117" r="8" fill="#D9D9D9" fill-opacity="0.06"/>
</svg>
