<svg width="257" height="118" viewBox="0 0 257 118" fill="none" xmlns="http://www.w3.org/2000/svg">
<path d="M208.903 52.4163C207.963 60.3672 202 92.9716 166.681 113.411C166.664 113.424 166.648 113.432 166.631 113.44C166.188 113.695 165.744 113.945 165.301 114.196L164.504 114.648L164.307 114.763C159.715 117.535 153.567 117.855 148.717 115.518C143.637 113.206 139.904 108.146 139.206 102.594C139.107 101.957 139.041 100.721 139.058 100.208C139.078 97.444 139.119 91.1358 139.14 88.2857C139.304 69.2462 139.497 48.5558 139.92 29.5903L162.574 43.1019C166.327 45.3402 168.689 49.332 168.849 53.7017C169.022 58.5068 169.149 58.7368 169.252 68.5234C169.288 72.0923 173.149 74.3018 176.245 72.5235C186.357 66.7 196.566 60.8888 206.731 55.1474C207.86 54.5108 208.587 53.5128 208.907 52.4163H208.903Z" fill="url(#paint0_linear_33_754)"/>
<path d="M255.171 45.7303C253.984 42.6584 251.639 39.8288 248.896 38.0792C248.67 37.9314 248.194 37.648 248.136 37.6151H248.132L248.042 37.5659L247.845 37.455L247.446 37.2332C229.216 27.1016 210.595 16.9248 192.131 6.94097C156.344 -12.5584 128.955 15.1876 128.639 15.512C130.475 14.2964 132.438 13.3313 134.606 12.7522C142.179 10.9369 150.397 12.3826 156.997 16.4648C173.424 26.6745 190.16 36.9663 206.858 47.1102C208.209 47.9275 208.944 49.2581 209.076 50.6339C209.137 51.2294 209.08 51.8331 208.907 52.4122C208.907 52.4122 208.907 52.4204 208.907 52.4245C207.967 60.3754 202.004 92.9798 166.685 113.42C186.435 102.2 207.708 89.8258 227.171 78.2937C232.711 75.0246 243.463 68.6261 248.802 65.4228C255.299 61.3816 258.058 52.8393 255.175 45.7385L255.171 45.7303ZM233.306 63.0736H233.315L233.347 63.0983L233.306 63.0736Z" fill="url(#paint1_linear_33_754)"/>
<path d="M255.155 45.7303C253.968 42.6584 251.623 39.8247 248.88 38.0751C248.654 37.9273 248.177 37.648 248.12 37.6151H248.116L248.025 37.5659L247.828 37.4509L247.426 37.2291C231.91 28.6047 216.111 19.9515 200.365 11.4092L191.946 6.85062C156.73 -12.2093 129.69 14.4401 128.651 15.4874C128.676 15.4709 128.717 15.4463 128.77 15.4134C128.84 15.3724 128.93 15.3149 129.041 15.245C129.891 14.6947 130.77 14.206 131.686 13.7912C139.485 9.79935 160.726 1.13797 178.8 14.0869L229.586 46.6667C232.473 48.5189 233.048 52.4204 230.994 55.0159L229.364 57.0776C224.045 64.2851 217.581 72.08 209.795 79.9775C197.014 92.9429 184.238 102.549 173.301 109.576C173.124 109.691 172.952 109.802 172.775 109.925C190.747 99.6617 209.68 88.6348 227.15 78.2854C232.694 75.0123 243.442 68.6179 248.781 65.4104C255.278 61.3693 258.038 52.827 255.155 45.7262V45.7303Z" fill="url(#paint2_linear_33_754)"/>
<path d="M209.072 50.6257C209.072 50.6257 209.039 51.254 208.903 52.404L209.072 50.6257Z" fill="url(#paint3_linear_33_754)"/>
<path style="mix-blend-mode:screen" d="M128.635 16.6373C129.6 15.5736 130.651 14.5921 131.731 13.6475C132.815 12.6988 133.945 11.8076 135.103 10.9534C137.427 9.25313 139.875 7.70895 142.442 6.37422C145 5.02306 147.682 3.90599 150.43 2.98194C153.181 2.07022 156.015 1.4008 158.886 0.944935C161.761 0.526034 164.672 0.382297 167.576 0.460327L169.748 0.583535C170.471 0.641031 171.19 0.743703 171.913 0.821734L172.993 0.949046L174.065 1.14207C174.775 1.2776 175.49 1.4008 176.2 1.55276C181.847 2.84231 187.248 5.07234 192.135 8.07446C186.952 5.61855 181.539 3.74171 175.974 2.69035C173.178 2.25092 170.373 1.87309 167.547 1.86488C164.726 1.83202 161.9 1.98397 159.112 2.41519C153.53 3.25299 148.089 4.98199 142.968 7.41326C140.409 8.633 137.92 10.017 135.526 11.5571C134.318 12.3169 133.152 13.13 131.998 13.976C130.852 14.8261 129.719 15.6968 128.643 16.6496L128.635 16.6373Z" fill="url(#paint4_linear_33_754)"/>
<path style="mix-blend-mode:screen" d="M209.199 50.6257C208.907 57.324 207.314 63.9402 205.01 70.2524C202.69 76.5729 199.556 82.6059 195.692 88.1337C194.747 89.53 193.696 90.8525 192.677 92.1954C191.593 93.485 190.558 94.8197 189.396 96.0394C187.145 98.5487 184.706 100.881 182.159 103.083C180.862 104.15 179.593 105.259 178.225 106.237C177.547 106.734 176.886 107.251 176.2 107.736L174.114 109.149L173.067 109.847L171.991 110.5L169.839 111.797C168.397 112.652 166.898 113.407 165.424 114.192C171.116 110.672 176.471 106.672 181.391 102.212C182.024 101.674 182.591 101.066 183.194 100.495C183.782 99.9122 184.41 99.366 184.969 98.7541L186.689 96.9553C187.268 96.3598 187.79 95.7191 188.344 95.1031C189.461 93.8792 190.48 92.5691 191.535 91.2919C192.529 89.9654 193.548 88.6594 194.472 87.2836C196.377 84.5731 198.127 81.7557 199.692 78.8317C201.277 75.9199 202.673 72.9055 203.93 69.8376C205.17 66.7575 206.263 63.6157 207.154 60.4082C208.061 57.2049 208.78 53.944 209.199 50.6257Z" fill="url(#paint5_linear_33_754)"/>
<path d="M7.04571 60.1783V42.2986L18.2057 59.2038C18.206 59.2041 18.2062 59.2045 18.2065 59.2049C18.8331 60.1608 19.7345 60.6783 20.9115 60.6783H24.0204C25.1513 60.6783 26.098 60.1678 26.6929 59.1982L37.8862 42.264V60.1824V60.6824H38.3862H43.7087H44.2087V60.1824V37.1347C44.2087 36.0135 43.9068 35.0915 43.2276 34.4571C42.5549 33.8287 41.597 33.5627 40.4561 33.5627H37.8852C36.6232 33.5627 35.5741 34.0074 34.9587 35.0523L22.4475 54.268L9.95411 35.0797L9.9507 35.0734C9.3712 34.0016 8.30433 33.5586 7.00978 33.5586H4.43888C3.29858 33.5586 2.34751 33.8233 1.6829 34.4542C1.01326 35.0898 0.723206 36.0121 0.723206 37.1305V60.1783V60.6783H1.22321H6.54571H7.04571V60.1783Z" fill="url(#paint6_linear_33_754)" stroke="#B4B4B4"/>
<path d="M80.9374 60.6824H81.4374V60.1824V39.7097C81.4374 37.7374 80.8713 36.1694 79.67 35.1044C78.4807 34.0501 76.7516 33.5633 74.58 33.5627C74.5786 33.5627 74.5772 33.5627 74.5759 33.5627H55.3188C53.1453 33.5627 51.4229 34.0494 50.2415 35.1059C49.0496 36.1718 48.4942 37.7399 48.4942 39.7097V60.1824V60.6824H48.9942H54.9615H55.4615V60.1824V51.8567H74.4701V60.1824V60.6824H74.9701H80.9374ZM74.466 41.069V47.0702H55.4574V41.069C55.4574 40.3195 55.6624 39.8372 55.9857 39.5358C56.3153 39.2286 56.8511 39.031 57.672 39.031H72.2144C73.0562 39.031 73.6014 39.2297 73.9349 39.5375C74.2611 39.8386 74.466 40.3196 74.466 41.069Z" fill="url(#paint7_linear_33_754)" stroke="#B4B4B4"/>
<path d="M84.12 34.6935L98.6127 47.0703L84.0819 59.5526L83.9077 59.7022V59.9319V60.1824V60.6824H84.4077H91.4099H91.5982L91.7397 60.5583L103.06 50.6274L114.558 60.5608L114.699 60.6824H114.885H121.994H122.494V60.1824V59.9319V59.7016L122.319 59.5519L107.434 46.8203L121.608 34.6932L121.783 34.5435V34.3132V34.0627V33.5627H121.283H114.244H114.056L113.915 33.6866L102.985 43.2608L91.8802 33.6841L91.7395 33.5627H91.5537H84.4447H83.9447V34.0627V34.3132V34.5438L84.12 34.6935Z" fill="url(#paint8_linear_33_754)" stroke="#B4B4B4"/>
<path d="M1 66.5H0.5V67V83V83.5H1H4.57723H5.07723V83V78.1156H15.7802C17.2602 78.1156 18.4599 77.7786 19.2898 77.0115C20.1272 76.2374 20.5 75.1079 20.5 73.7196V70.896C20.5 69.5077 20.1272 68.3782 19.2898 67.6041C18.4599 66.837 17.2602 66.5 15.7802 66.5H1ZM14.6449 70.236C15.1869 70.236 15.4937 70.363 15.6671 70.5292C15.8365 70.6915 15.9656 70.975 15.9656 71.487V73.2161C15.9656 73.7281 15.8365 74.0116 15.6671 74.1739C15.4937 74.3402 15.1869 74.4672 14.6449 74.4672H5.07723V70.236H14.6449Z" fill="url(#paint9_linear_33_754)" stroke="#B4B4B4"/>
<path d="M25.9974 67V66.5H25.4974H22H21.5V67V83V83.5H22H38H38.5V83V80.264V79.764H38H25.9974V67Z" fill="url(#paint10_linear_33_754)" stroke="#B4B4B4"/>
<path d="M59 83.5H59.5V83V70.4583C59.5 69.218 59.1537 68.1989 58.3861 67.4981C57.6269 66.8049 56.5389 66.5 55.217 66.5H43.7617C42.44 66.5 41.3561 66.8049 40.6018 67.4995C39.8397 68.2012 39.5 69.2204 39.5 70.4583V83V83.5H40H43.5492H44.0492V83V78.0937H54.9508V83V83.5H55.4508H59ZM54.9508 71.29V74.7736H44.0492V71.29C44.0492 70.8621 44.1627 70.624 44.3044 70.4881C44.4499 70.3486 44.7088 70.236 45.1644 70.236H53.8143C54.283 70.236 54.5473 70.3498 54.6947 70.4897C54.8374 70.6253 54.9508 70.8621 54.9508 71.29Z" fill="url(#paint11_linear_33_754)" stroke="#B4B4B4"/>
<path d="M76.6187 66.5H76.1187V67V74.314H66.9404C66.5034 74.314 66.2708 74.2035 66.1421 74.0712C66.0109 73.9365 65.9016 73.6908 65.9016 73.238V67V66.5H65.4016H62H61.5V67V73.6977C61.5 74.9311 61.8273 75.9473 62.5601 76.6496C63.2891 77.3483 64.3359 77.656 65.604 77.656H76.1187V78.71C76.1187 79.1629 76.0094 79.4002 75.8819 79.5285C75.7549 79.6562 75.5223 79.764 75.0799 79.764H63.6805H63.1805V80.264V83V83.5H63.6805H76.4162C77.6843 83.5 78.7272 83.1923 79.4515 82.4922C80.179 81.7891 80.5 80.7729 80.5 79.5417V67V66.5H80H76.6187Z" fill="url(#paint12_linear_33_754)" stroke="#B4B4B4"/>
<path d="M98.6466 72.7565V72.2565H98.1466H87.8558V70.236H101H101.5V69.736V67V66.5H101H84H83.5V67V83V83.5H84H101H101.5V83V80.264V79.764H101H87.8558V75.5766H98.1466H98.6466V75.0766V72.7565Z" fill="url(#paint13_linear_33_754)" stroke="#B4B4B4"/>
<path d="M104 66.5H103.5V67V83V83.5H104H107.438H107.938V83V77.4371H114.432L118.791 83.2983L118.94 83.5H119.192H123H123.5V83V82.8468V82.6797L123.4 82.5462L119.481 77.338C120.385 77.1739 121.136 76.8154 121.695 76.2285C122.431 75.4559 122.759 74.3663 122.759 73.041V70.896C122.759 69.5131 122.403 68.3861 121.597 67.6109C120.795 66.8393 119.633 66.5 118.204 66.5H104ZM117.113 70.1703C117.621 70.1703 117.907 70.2979 118.071 70.4642C118.236 70.6321 118.362 70.9262 118.362 71.4432V72.8222C118.362 73.3392 118.236 73.6333 118.071 73.8011C117.907 73.9675 117.621 74.0951 117.113 74.0951H107.938V70.1703H117.113Z" fill="url(#paint14_linear_33_754)" stroke="#B4B4B4"/>
<defs>
<linearGradient id="paint0_linear_33_754" x1="139.05" y1="73.3367" x2="208.903" y2="73.3367" gradientUnits="userSpaceOnUse">
<stop stop-color="white"/>
<stop offset="1" stop-color="#601D2D"/>
</linearGradient>
<linearGradient id="paint1_linear_33_754" x1="128.635" y1="56.7039" x2="256.309" y2="56.7039" gradientUnits="userSpaceOnUse">
<stop stop-color="white"/>
<stop offset="1" stop-color="#601D2D"/>
</linearGradient>
<linearGradient id="paint2_linear_33_754" x1="164.976" y1="107.604" x2="203.363" y2="6.32495" gradientUnits="userSpaceOnUse">
<stop stop-color="white"/>
<stop offset="1" stop-color="#601D2D"/>
</linearGradient>
<linearGradient id="paint3_linear_33_754" x1="208.903" y1="51.5169" x2="209.072" y2="51.5169" gradientUnits="userSpaceOnUse">
<stop stop-color="white"/>
<stop offset="1" stop-color="#601D2D"/>
</linearGradient>
<linearGradient id="paint4_linear_33_754" x1="128.101" y1="8.53443" x2="192.48" y2="8.53443" gradientUnits="userSpaceOnUse">
<stop stop-color="white"/>
<stop offset="1" stop-color="#601D2D"/>
</linearGradient>
<linearGradient id="paint5_linear_33_754" x1="165.063" y1="82.4128" x2="209.938" y2="82.4128" gradientUnits="userSpaceOnUse">
<stop stop-color="white"/>
<stop offset="1" stop-color="#601D2D"/>
</linearGradient>
<linearGradient id="paint6_linear_33_754" x1="1.2191" y1="47.1226" x2="43.7046" y2="47.1226" gradientUnits="userSpaceOnUse">
<stop stop-color="white"/>
<stop offset="1" stop-color="#601D2D"/>
</linearGradient>
<linearGradient id="paint7_linear_33_754" x1="48.9901" y1="47.1226" x2="80.9374" y2="47.1226" gradientUnits="userSpaceOnUse">
<stop stop-color="white"/>
<stop offset="1" stop-color="#601D2D"/>
</linearGradient>
<linearGradient id="paint8_linear_33_754" x1="84.3995" y1="47.1226" x2="121.99" y2="47.1226" gradientUnits="userSpaceOnUse">
<stop stop-color="white"/>
<stop offset="1" stop-color="#601D2D"/>
</linearGradient>
<linearGradient id="paint9_linear_33_754" x1="1" y1="75" x2="20" y2="75" gradientUnits="userSpaceOnUse">
<stop stop-color="white"/>
<stop offset="1" stop-color="#601D2D"/>
</linearGradient>
<linearGradient id="paint10_linear_33_754" x1="22" y1="75" x2="38" y2="75" gradientUnits="userSpaceOnUse">
<stop stop-color="white"/>
<stop offset="1" stop-color="#601D2D"/>
</linearGradient>
<linearGradient id="paint11_linear_33_754" x1="40" y1="75" x2="59" y2="75" gradientUnits="userSpaceOnUse">
<stop stop-color="white"/>
<stop offset="1" stop-color="#601D2D"/>
</linearGradient>
<linearGradient id="paint12_linear_33_754" x1="62" y1="75" x2="80" y2="75" gradientUnits="userSpaceOnUse">
<stop stop-color="white"/>
<stop offset="1" stop-color="#601D2D"/>
</linearGradient>
<linearGradient id="paint13_linear_33_754" x1="84" y1="75" x2="101" y2="75" gradientUnits="userSpaceOnUse">
<stop stop-color="white"/>
<stop offset="1" stop-color="#601D2D"/>
</linearGradient>
<linearGradient id="paint14_linear_33_754" x1="104" y1="75" x2="123" y2="75" gradientUnits="userSpaceOnUse">
<stop stop-color="white"/>
<stop offset="1" stop-color="#601D2D"/>
</linearGradient>
</defs>
</svg>
